<?xml version="1.0" encoding="UTF-8"?>
<svg id="Layer_1" data-name="Layer 1" xmlns="http://www.w3.org/2000/svg" viewBox="0 0 1137.470703125 598.5947265625">
  <defs>
    <style>
      .cls-1 {
        stroke: #e1524a;
      }

      .cls-1, .cls-2, .cls-3, .cls-4, .cls-5, .cls-6, .cls-7, .cls-8, .cls-9, .cls-10, .cls-11, .cls-12, .cls-13, .cls-14, .cls-15, .cls-16, .cls-17, .cls-18, .cls-19, .cls-20, .cls-21, .cls-22, .cls-23, .cls-24, .cls-25, .cls-26, .cls-27, .cls-28, .cls-29, .cls-30, .cls-31, .cls-32, .cls-33, .cls-34, .cls-35, .cls-36, .cls-37, .cls-38, .cls-39, .cls-40, .cls-41, .cls-42, .cls-43, .cls-44, .cls-45, .cls-46, .cls-47, .cls-48, .cls-49, .cls-50, .cls-51, .cls-52, .cls-53, .cls-54, .cls-55, .cls-56, .cls-57, .cls-58, .cls-59, .cls-60, .cls-61, .cls-62, .cls-63, .cls-64, .cls-65, .cls-66, .cls-67, .cls-68 {
        fill: none;
      }

      .cls-1, .cls-4, .cls-5, .cls-6, .cls-8, .cls-9, .cls-10, .cls-18, .cls-21, .cls-22, .cls-26, .cls-27, .cls-32, .cls-34, .cls-38, .cls-40, .cls-43, .cls-44, .cls-48, .cls-52, .cls-53, .cls-54, .cls-55, .cls-57, .cls-60, .cls-62, .cls-63, .cls-64, .cls-65 {
        stroke-width: 2.265700578689575px;
      }

      .cls-2, .cls-7, .cls-11, .cls-16, .cls-25, .cls-29, .cls-35, .cls-42, .cls-45, .cls-46, .cls-49, .cls-50, .cls-51, .cls-68 {
        stroke-width: 4.53140115737915px;
      }

      .cls-2, .cls-10, .cls-28, .cls-36 {
        stroke: #438cb4;
      }

      .cls-3, .cls-18, .cls-20, .cls-29, .cls-41 {
        stroke: #fbf8b0;
      }

      .cls-3, .cls-30, .cls-66 {
        stroke-width: 11.328502655029297px;
      }

      .cls-4 {
        stroke: #feda89;
      }

      .cls-5, .cls-7, .cls-12, .cls-14, .cls-37, .cls-47, .cls-58, .cls-59, .cls-66 {
        stroke: #5e4fa2;
      }

      .cls-6 {
        stroke: #d43f4b;
      }

      .cls-8, .cls-42 {
        stroke: #ddf1a0;
      }

      .cls-9, .cls-31, .cls-68 {
        stroke: #fdb76b;
      }

      .cls-69 {
        letter-spacing: -.07421875em;
      }

      .cls-11, .cls-19, .cls-39, .cls-43 {
        stroke: #ccea9f;
      }

      .cls-12, .cls-17, .cls-24 {
        stroke-width: 15.859903335571289px;
      }

      .cls-13, .cls-15, .cls-23, .cls-24, .cls-33, .cls-48, .cls-51 {
        stroke: #4f63ab;
      }

      .cls-13, .cls-20, .cls-28, .cls-39, .cls-59, .cls-61 {
        stroke-width: 9.062802314758301px;
      }

      .cls-14, .cls-19, .cls-23, .cls-31, .cls-41, .cls-56, .cls-67 {
        stroke-width: 6.797101497650146px;
      }

      .cls-15 {
        stroke-width: 22.657005310058594px;
      }

      .cls-16, .cls-60 {
        stroke: #b11746;
      }

      .cls-70, .cls-71, .cls-72, .cls-73 {
        isolation: isolate;
      }

      .cls-17, .cls-30, .cls-32, .cls-49 {
        stroke: #72c3a7;
      }

      .cls-74 {
        stroke-width: 0px;
      }

      .cls-21 {
        stroke: #c42c4a;
      }

      .cls-71 {
        font-size: 10px;
      }

      .cls-71, .cls-72, .cls-73 {
        font-family: Arial-BoldMT, Arial;
        font-weight: 700;
      }

      .cls-22 {
        stroke: #b7e2a1;
      }

      .cls-25, .cls-26 {
        stroke: #ebf7a6;
      }

      .cls-27, .cls-56 {
        stroke: #9e0142;
      }

      .cls-33 {
        stroke-width: 33.985507965087891px;
      }

      .cls-34 {
        stroke: #fba35e;
      }

      .cls-72 {
        fill: #7b7b7b;
        font-size: 12px;
      }

      .cls-35, .cls-64, .cls-67 {
        stroke: #4478b2;
      }

      .cls-36 {
        stroke-width: 13.594202995300293px;
      }

      .cls-37 {
        stroke-width: 27.188405990600586px;
      }

      .cls-38, .cls-61 {
        stroke: #fee89a;
      }

      .cls-40 {
        stroke: #f5faad;
      }

      .cls-44 {
        stroke: #89cfa5;
      }

      .cls-45, .cls-63 {
        stroke: #f88e53;
      }

      .cls-46, .cls-62 {
        stroke: #4ba0b1;
      }

      .cls-73 {
        font-size: 8px;
      }

      .cls-47 {
        stroke-width: 24.922704696655273px;
      }

      .cls-50, .cls-55 {
        stroke: #5cb3ac;
      }

      .cls-52 {
        stroke: #a0d9a3;
      }

      .cls-53 {
        stroke: #fdf2a8;
      }

      .cls-54 {
        stroke: #f3784c;
      }

      .cls-75 {
        letter-spacing: -.01806640625em;
      }

      .cls-57 {
        stroke: #ec6449;
      }

      .cls-58 {
        stroke-width: 38.51690673828125px;
      }

      .cls-76 {
        letter-spacing: -.037109375em;
      }

      .cls-77 {
        letter-spacing: -.05517578125em;
      }

      .cls-65 {
        stroke: #fdca79;
      }
    </style>
  </defs>
  <g>
    <rect class="cls-74" x="554.6962890625" y="40.794921875" width="12" height="13.594203948974609"/>
    <rect class="cls-74" x="554.6962890625" y="57.389125823974609" width="12" height="22.657005310058594"/>
    <rect class="cls-74" x="554.6962890625" y="83.046127319335938" width="12" height="6.797103881835938"/>
    <rect class="cls-74" x="554.6962890625" y="92.843231201171875" width="12" height="2.265701293945312"/>
    <rect class="cls-74" x="554.6962890625" y="98.108932495117188" width="12" height="9.06280517578125"/>
    <rect class="cls-74" x="554.6962890625" y="110.171730041503906" width="12" height="20.391304016113281"/>
    <rect class="cls-74" x="554.6962890625" y="133.563034057617188" width="12" height="4.531402587890625"/>
    <rect class="cls-74" x="554.6962890625" y="141.094436645507812" width="12" height="9.06280517578125"/>
    <rect class="cls-74" x="554.6962890625" y="153.157241821289062" width="12" height="2.265701293945312"/>
    <rect class="cls-74" x="554.6962890625" y="158.422943115234375" width="12" height="45.314010620117188"/>
    <rect class="cls-74" x="554.6962890625" y="206.736953735351562" width="12" height="9.06280517578125"/>
    <rect class="cls-74" x="554.6962890625" y="218.799758911132812" width="12" height="11.328506469726562"/>
    <rect class="cls-74" x="554.6962890625" y="233.128250122070312" width="12" height="24.922698974609375"/>
    <rect class="cls-74" x="554.6962890625" y="261.05096435546875" width="12" height="4.531402587890625"/>
    <rect class="cls-74" x="554.6962890625" y="268.582366943359375" width="12" height="88.362335205078125"/>
    <rect class="cls-74" x="554.6962890625" y="359.944671630859375" width="12" height="6.797088623046875"/>
    <rect class="cls-74" x="554.6962890625" y="369.741790771484375" width="12" height="15.859893798828125"/>
    <rect class="cls-74" x="554.6962890625" y="388.6016845703125" width="12" height="22.657012939453125"/>
    <rect class="cls-74" x="554.6962890625" y="414.258697509765625" width="12" height="56.64251708984375"/>
    <rect class="cls-74" x="554.6962890625" y="473.901214599609375" width="12" height="2.26568603515625"/>
    <rect class="cls-74" x="554.6962890625" y="479.166900634765625" width="12" height="11.3284912109375"/>
    <rect class="cls-74" x="554.6962890625" y="493.495391845703125" width="12" height="11.3284912109375"/>
    <rect class="cls-74" x="554.6962890625" y="507.82391357421875" width="12" height="67.97100830078125"/>
    <rect class="cls-74" x="988.6962890625" y="18.294921875" width="12" height="22.657005310058594"/>
    <rect class="cls-74" x="988.6962890625" y="43.951927185058594" width="12" height="4.531400680541992"/>
    <rect class="cls-74" x="988.6962890625" y="51.483325958251953" width="12" height="20.391304016113281"/>
    <rect class="cls-74" x="988.6962890625" y="74.8746337890625" width="12" height="20.391304016113281"/>
    <rect class="cls-74" x="988.6962890625" y="98.265937805175781" width="12" height="15.859901428222656"/>
    <rect class="cls-74" x="120.6962890625" y="66.294921875" width="12" height="20.391304016113281"/>
    <rect class="cls-74" x="120.6962890625" y="89.686225891113281" width="12" height="24.922706604003906"/>
    <rect class="cls-74" x="120.6962890625" y="117.608932495117188" width="12" height="43.048309326171875"/>
    <rect class="cls-74" x="120.6962890625" y="163.657241821289062" width="12" height="33.985504150390625"/>
    <rect class="cls-74" x="120.6962890625" y="200.642745971679688" width="12" height="158.599014282226562"/>
    <rect class="cls-74" x="120.6962890625" y="362.241790771484375" width="12" height="188.053131103515625"/>
    <rect class="cls-74" x="988.6962890625" y="117.125839233398438" width="12" height="56.64251708984375"/>
    <rect class="cls-74" x="988.6962890625" y="176.768356323242188" width="12" height="15.859909057617188"/>
    <rect class="cls-74" x="988.6962890625" y="195.628250122070312" width="12" height="27.188400268554688"/>
    <rect class="cls-74" x="988.6962890625" y="225.816665649414062" width="12" height="13.594207763671875"/>
    <rect class="cls-74" x="988.6962890625" y="242.410858154296875" width="12" height="6.797103881835938"/>
    <rect class="cls-74" x="988.6962890625" y="252.207962036132812" width="12" height="29.454116821289062"/>
    <rect class="cls-74" x="988.6962890625" y="284.662078857421875" width="12" height="4.531402587890625"/>
    <rect class="cls-74" x="988.6962890625" y="292.1934814453125" width="12" height="9.06280517578125"/>
    <rect class="cls-74" x="988.6962890625" y="304.25628662109375" width="12" height="4.531402587890625"/>
    <rect class="cls-74" x="988.6962890625" y="311.787689208984375" width="12" height="6.797088623046875"/>
    <rect class="cls-74" x="988.6962890625" y="321.58477783203125" width="12" height="9.06280517578125"/>
    <rect class="cls-74" x="988.6962890625" y="333.6475830078125" width="12" height="2.26568603515625"/>
    <rect class="cls-74" x="988.6962890625" y="338.91326904296875" width="12" height="2.26568603515625"/>
    <rect class="cls-74" x="988.6962890625" y="344.178985595703125" width="12" height="13.594207763671875"/>
    <rect class="cls-74" x="988.6962890625" y="360.773193359375" width="12" height="4.531402587890625"/>
    <rect class="cls-74" x="988.6962890625" y="368.304595947265625" width="12" height="9.06280517578125"/>
    <rect class="cls-74" x="988.6962890625" y="380.36737060546875" width="12" height="33.985504150390625"/>
    <rect class="cls-74" x="988.6962890625" y="417.3529052734375" width="12" height="15.859893798828125"/>
    <rect class="cls-74" x="988.6962890625" y="436.212799072265625" width="12" height="11.3284912109375"/>
    <rect class="cls-74" x="988.6962890625" y="450.541290283203125" width="12" height="4.531402587890625"/>
    <rect class="cls-74" x="988.6962890625" y="458.07269287109375" width="12" height="4.531402587890625"/>
    <rect class="cls-74" x="988.6962890625" y="465.604095458984375" width="12" height="6.797088623046875"/>
    <rect class="cls-74" x="988.6962890625" y="475.401214599609375" width="12" height="6.797088623046875"/>
    <rect class="cls-74" x="988.6962890625" y="485.19830322265625" width="12" height="2.26568603515625"/>
    <rect class="cls-74" x="988.6962890625" y="490.4639892578125" width="12" height="2.26568603515625"/>
    <rect class="cls-74" x="988.6962890625" y="495.729705810546875" width="12" height="2.26568603515625"/>
    <rect class="cls-74" x="988.6962890625" y="500.995391845703125" width="12" height="18.1256103515625"/>
    <rect class="cls-74" x="988.6962890625" y="522.121002197265625" width="12" height="2.26568603515625"/>
    <rect class="cls-74" x="988.6962890625" y="527.38671875" width="12" height="9.06280517578125"/>
    <rect class="cls-74" x="988.6962890625" y="539.44952392578125" width="12" height="4.5313720703125"/>
    <rect class="cls-74" x="988.6962890625" y="546.98089599609375" width="12" height="24.9227294921875"/>
    <rect class="cls-74" x="988.6962890625" y="574.90362548828125" width="12" height="13.59417724609375"/>
    <rect class="cls-74" x="988.6962890625" y="591.497802734375" width="12" height="6.797119140625"/>
  </g>
  <g>
    <path class="cls-55" d="M132.6962890625,85.553375244140625c211,0,211,423.40338134765625,422,423.40338134765625"/>
    <path class="cls-50" d="M132.6962890625,75.357723236083984c211,0,211,195.490345001220703,422,195.490345001220703"/>
    <path class="cls-55" d="M132.6962890625,67.427772521972656c211,0,211,26.548309326171875,422,26.548309326171875"/>
    <path class="cls-50" d="M132.6962890625,70.826324462890625c211,0,211,89.862319946289062,422,89.862319946289062"/>
    <path class="cls-55" d="M132.6962890625,83.287673950195312c211,0,211,332.103866577148438,422,332.103866577148438"/>
    <path class="cls-50" d="M132.6962890625,79.889125823974609c211,0,211,292.118350982666016,422,292.118350982666016"/>
    <path class="cls-35" d="M132.6962890625,186.314239501953125c211,0,211,239.27294921875,422,239.27294921875"/>
    <path class="cls-64" d="M132.6962890625,169.321487426757812c211,0,211-27.094200134277344,422-27.094200134277344"/>
    <path class="cls-67" d="M132.6962890625,194.24420166015625c211,0,211,319.24395751953125,422,319.24395751953125"/>
    <path class="cls-64" d="M132.6962890625,189.712799072265625c211,0,211,307.18115234375,422,307.18115234375"/>
    <path class="cls-35" d="M132.6962890625,174.985748291015625c211,0,211,67.205307006835938,422,67.205307006835938"/>
    <path class="cls-64" d="M132.6962890625,182.915695190429688c211,0,211,194.756027221679688,422,194.756027221679688"/>
    <path class="cls-64" d="M132.6962890625,171.587188720703125c211,0,211,6.094207763671875,422,6.094207763671875"/>
    <path class="cls-64" d="M132.6962890625,164.790084838867188c211,0,211-99.47100830078125,422-99.47100830078125"/>
    <path class="cls-35" d="M132.6962890625,179.51715087890625c211,0,211,113.9879150390625,422,113.9879150390625"/>
    <path class="cls-64" d="M132.6962890625,167.0557861328125c211,0,211-53.485504150390625,422-53.485504150390625"/>
    <path class="cls-36" d="M132.6962890625,147.063034057617188c211,0,211,137.379226684570312,422,137.379226684570312"/>
    <path class="cls-28" d="M132.6962890625,131.203132629394531c211,0,211,40.814018249511719,422,40.814018249511719"/>
    <path class="cls-2" d="M132.6962890625,158.39154052734375c211,0,211,262.66424560546875,422,262.66424560546875"/>
    <path class="cls-10" d="M132.6962890625,136.867385864257812c211,0,211,83.065216064453125,422,83.065216064453125"/>
    <path class="cls-10" d="M132.6962890625,125.538887023925781c211,0,211-14.234306335449219,422-14.234306335449219"/>
    <path class="cls-10" d="M132.6962890625,154.992996215820312c211,0,211,234.741531372070312,422,234.741531372070312"/>
    <path class="cls-2" d="M132.6962890625,122.140335083007812c211,0,211-60.219810485839844,422-60.219810485839844"/>
    <path class="cls-10" d="M132.6962890625,139.133087158203125c211,0,211,99.659423828125,422,99.659423828125"/>
    <path class="cls-10" d="M132.6962890625,118.741783142089844c211,0,211-76.814010620117188,422-76.814010620117188"/>
    <path class="cls-37" d="M132.6962890625,498.183807373046875c211,0,211-40.876800537109375,422-40.876800537109375"/>
    <path class="cls-47" d="M132.6962890625,537.83355712890625c211,0,211,25.5,422,25.5"/>
    <path class="cls-66" d="M132.6962890625,379.234527587890625c211,0,211-254.335739135742188,422-254.335739135742188"/>
    <path class="cls-7" d="M132.6962890625,364.507476806640625c211,0,211-312.384052276611328,422-312.384052276611328"/>
    <path class="cls-14" d="M132.6962890625,413.22003173828125c211,0,211-200.818832397460938,422-200.818832397460938"/>
    <path class="cls-58" d="M132.6962890625,449.47125244140625c211,0,211-111.7850341796875,422-111.7850341796875"/>
    <path class="cls-7" d="M132.6962890625,387.16448974609375c211,0,211-251.33575439453125,422-251.33575439453125"/>
    <path class="cls-14" d="M132.6962890625,517.4422607421875c211,0,211-30.34539794921875,422-30.34539794921875"/>
    <path class="cls-7" d="M132.6962890625,418.884307861328125c211,0,211-191.021759033203125,422-191.021759033203125"/>
    <path class="cls-7" d="M132.6962890625,523.10650634765625c211,0,211-20.548309326171875,422-20.548309326171875"/>
    <path class="cls-7" d="M132.6962890625,391.695892333984375c211,0,211-243.804351806640625,422-243.804351806640625"/>
    <path class="cls-59" d="M132.6962890625,425.681396484375c211,0,211-172.161834716796875,422-172.161834716796875"/>
    <path class="cls-12" d="M132.6962890625,401.89154052734375c211,0,211-206.084548950195312,422-206.084548950195312"/>
    <path class="cls-5" d="M132.6962890625,372.43743896484375c211,0,211-266.398551940917969,422-266.398551940917969"/>
    <path class="cls-7" d="M132.6962890625,369.03887939453125c211,0,211-291.258449554443359,422-291.258449554443359"/>
    <path class="cls-66" d="M132.6962890625,478.92535400390625c211,0,211-73.330902099609375,422-73.330902099609375"/>
    <path class="cls-5" d="M132.6962890625,512.910858154296875c211,0,211-37.876800537109375,422-37.876800537109375"/>
    <path class="cls-7" d="M132.6962890625,470.995391845703125c211,0,211-87.659393310546875,422-87.659393310546875"/>
    <path class="cls-62" d="M132.6962890625,102.147575378417969c211,0,211,160.036231994628906,422,160.036231994628906"/>
    <path class="cls-46" d="M132.6962890625,105.546127319335938c211,0,211,169.833328247070312,422,169.833328247070312"/>
    <path class="cls-46" d="M132.6962890625,94.217628479003906c211,0,211,71.002418518066406,422,71.002418518066406"/>
    <path class="cls-62" d="M132.6962890625,111.210380554199219c211,0,211,306.446846008300781,422,306.446846008300781"/>
    <path class="cls-46" d="M132.6962890625,98.749031066894531c211,0,211,136.644920349121094,422,136.644920349121094"/>
    <path class="cls-62" d="M132.6962890625,90.819076538085938c211,0,211-32.297100067138672,422-32.297100067138672"/>
    <path class="cls-62" d="M132.6962890625,108.944679260253906c211,0,211,266.461357116699219,422,266.461357116699219"/>
    <path class="cls-62" d="M132.6962890625,113.476081848144531c211,0,211,381.152183532714844,422,381.152183532714844"/>
    <path class="cls-33" d="M132.6962890625,342.2490234375c211,0,211,191.63043212890625,422,191.63043212890625"/>
    <path class="cls-13" d="M132.6962890625,211.97125244140625c211,0,211-140.987926483154297,422-140.987926483154297"/>
    <path class="cls-48" d="M132.6962890625,260.683807373046875c211,0,211,3.765701293945312,422,3.765701293945312"/>
    <path class="cls-48" d="M132.6962890625,324.1234130859375c211,0,211,175.0362548828125,422,175.0362548828125"/>
    <path class="cls-15" d="M132.6962890625,273.145156860351562c211,0,211,33.954116821289062,422,33.954116821289062"/>
    <path class="cls-51" d="M132.6962890625,320.724884033203125c211,0,211,160.707733154296875,422,160.707733154296875"/>
    <path class="cls-13" d="M132.6962890625,298.06787109375c211,0,211,97.330902099609375,422,97.330902099609375"/>
    <path class="cls-51" d="M132.6962890625,257.285263061523438c211,0,211-10.56280517578125,422-10.56280517578125"/>
    <path class="cls-48" d="M132.6962890625,235.7611083984375c211,0,211-91.268119812011719,422-91.268119812011719"/>
    <path class="cls-51" d="M132.6962890625,232.362548828125c211,0,211-115.393714904785156,422-115.393714904785156"/>
    <path class="cls-23" d="M132.6962890625,287.872222900390625c211,0,211,75.47100830078125,422,75.47100830078125"/>
    <path class="cls-23" d="M132.6962890625,204.041305541992188c211,0,211-157.582132339477539,422-157.582132339477539"/>
    <path class="cls-23" d="M132.6962890625,219.901199340820312c211,0,211-133.456520080566406,422-133.456520080566406"/>
    <path class="cls-23" d="M132.6962890625,226.69830322265625c211,0,211-125.190818786621094,422-125.190818786621094"/>
    <path class="cls-48" d="M132.6962890625,249.355300903320312c211,0,211-41.485504150390625,422-41.485504150390625"/>
    <path class="cls-13" d="M132.6962890625,243.691055297851562c211,0,211-60.345413208007812,422-60.345413208007812"/>
    <path class="cls-24" d="M132.6962890625,310.52923583984375c211,0,211,125.25360107421875,422,125.25360107421875"/>
    <path class="cls-51" d="M132.6962890625,252.753860473632812c211,0,211-29.422714233398438,422-29.422714233398438"/>
    <path class="cls-48" d="M132.6962890625,292.40362548828125c211,0,211,87.5338134765625,422,87.5338134765625"/>
    <path class="cls-48" d="M132.6962890625,238.026809692382812c211,0,211-83.736724853515625,422-83.736724853515625"/>
    <path class="cls-30" d="M566.6962890625,513.4881591796875c211,0,211-447.277778625488281,422-447.277778625488281"/>
    <path class="cls-29" d="M566.6962890625,270.848068237304688c211,0,211-248.021745204925537,422-248.021745204925537"/>
    <path class="cls-6" d="M566.6962890625,93.976081848144531c211,0,211,384.823661804199219,422,384.823661804199219"/>
    <path class="cls-68" d="M566.6962890625,169.751449584960938c211,0,211,30.408203125,422,30.408203125"/>
    <path class="cls-43" d="M566.6962890625,456.174163818359375c211,0,211,30.156982421875,422,30.156982421875"/>
    <path class="cls-25" d="M566.6962890625,376.53887939453125c211,0,211-62.485504150390625,422-62.485504150390625"/>
    <path class="cls-68" d="M566.6962890625,176.548538208007812c211,0,211,149.567642211914062,422,149.567642211914062"/>
    <path class="cls-26" d="M566.6962890625,370.8746337890625c211,0,211-344.649760246276855,422-344.649760246276855"/>
    <path class="cls-41" d="M566.6962890625,290.10650634765625c211,0,211-103.142501831054688,422-103.142501831054688"/>
    <path class="cls-43" d="M566.6962890625,449.377044677734375c211,0,211-40.68841552734375,422-40.68841552734375"/>
    <path class="cls-63" d="M566.6962890625,142.227287292480469c211,0,211-5.842994689941406,422-5.842994689941406"/>
    <path class="cls-32" d="M566.6962890625,556.53643798828125c211,0,211-180.301910400390625,422-180.301910400390625"/>
    <path class="cls-43" d="M566.6962890625,442.5799560546875c211,0,211-204.30194091796875,422-204.30194091796875"/>
    <path class="cls-44" d="M566.6962890625,494.628265380859375c211,0,211-435.214984893798828,422-435.214984893798828"/>
    <path class="cls-38" d="M566.6962890625,250.121002197265625c211,0,211,142.707733154296875,422,142.707733154296875"/>
    <path class="cls-25" d="M566.6962890625,383.33599853515625c211,0,211,21.9541015625,422,21.9541015625"/>
    <path class="cls-9" d="M566.6962890625,202.604095458984375c211,0,211,390.026580810546875,422,390.026580810546875"/>
    <path class="cls-38" d="M566.6962890625,252.386703491210938c211,0,211,216.615951538085938,422,216.615951538085938"/>
    <path class="cls-16" d="M566.6962890625,77.780429840087891c211,0,211,499.388881683349609,422,499.388881683349609"/>
    <path class="cls-3" d="M566.6962890625,299.1693115234375c211,0,211-91.079696655273438,422-91.079696655273438"/>
    <path class="cls-20" d="M566.6962890625,282.17657470703125c211,0,211-131.065231323242188,422-131.065231323242188"/>
    <path class="cls-57" d="M566.6962890625,127.16448974609375c211,0,211,369.69805908203125,422,369.69805908203125"/>
    <path class="cls-41" d="M566.6962890625,335.4205322265625c211,0,211,87.59661865234375,422,87.59661865234375"/>
    <path class="cls-18" d="M566.6962890625,346.7490234375c211,0,211,114.72222900390625,422,114.72222900390625"/>
    <path class="cls-9" d="M566.6962890625,173.149993896484375c211,0,211,134.50482177734375,422,134.50482177734375"/>
    <path class="cls-11" d="M566.6962890625,452.775604248046875c211,0,211-24.094207763671875,422-24.094207763671875"/>
    <path class="cls-18" d="M566.6962890625,349.014739990234375c211,0,211,132.05072021484375,422,132.05072021484375"/>
    <path class="cls-18" d="M566.6962890625,351.280426025390625c211,0,211,189.301910400390625,422,189.301910400390625"/>
    <path class="cls-4" d="M566.6962890625,226.729705810546875c211,0,211,163.833343505859375,422,163.833343505859375"/>
    <path class="cls-68" d="M566.6962890625,194.674148559570312c211,0,211,317.649765014648438,422,317.649765014648438"/>
    <path class="cls-31" d="M566.6962890625,186.74420166015625c211,0,211,197.021728515625,422,197.021728515625"/>
    <path class="cls-57" d="M566.6962890625,122.633087158203125c211,0,211,336.57244873046875,422,336.57244873046875"/>
    <path class="cls-42" d="M566.6962890625,390.86737060546875c211,0,211-361.243946075439453,422-361.243946075439453"/>
    <path class="cls-16" d="M566.6962890625,70.983325958251953c211,0,211,432.277782440185547,422,432.277782440185547"/>
    <path class="cls-43" d="M566.6962890625,469.768341064453125c211,0,211,127.393707275390625,422,127.393707275390625"/>
    <path class="cls-61" d="M566.6962890625,242.191055297851562c211,0,211-9.577285766601562,422-9.577285766601562"/>
    <path class="cls-60" d="M566.6962890625,67.58477783203125c211,0,211,408.94927978515625,422,408.94927978515625"/>
    <path class="cls-18" d="M566.6962890625,317.294921875c211,0,211,44.611114501953125,422,44.611114501953125"/>
    <path class="cls-9" d="M566.6962890625,191.275604248046875c211,0,211,227.21014404296875,422,227.21014404296875"/>
    <path class="cls-27" d="M566.6962890625,48.724874496459961c211,0,211,148.036233901977539,422,148.036233901977539"/>
    <path class="cls-43" d="M566.6962890625,426.72003173828125c211,0,211-337.11834716796875,422-337.11834716796875"/>
    <path class="cls-32" d="M566.6962890625,567.864990234375c211,0,211-25.01690673828125,422-25.01690673828125"/>
    <path class="cls-57" d="M566.6962890625,113.570281982421875c211,0,211-37.562801361083984,422-37.562801361083984"/>
    <path class="cls-49" d="M566.6962890625,532.74664306640625c211,0,211-285.80438232421875,422-285.80438232421875"/>
    <path class="cls-56" d="M566.6962890625,44.193471908569336c211,0,211,76.33091926574707,422,76.33091926574707"/>
    <path class="cls-32" d="M566.6962890625,520.285247802734375c211,0,211-426.15216064453125,422-426.15216064453125"/>
    <path class="cls-65" d="M566.6962890625,214.666900634765625c211,0,211,173.63043212890625,422,173.63043212890625"/>
    <path class="cls-20" d="M566.6962890625,327.490570068359375c211,0,211,71.002410888671875,422,71.002410888671875"/>
    <path class="cls-54" d="M566.6962890625,134.695884704589844c211,0,211-82.079708099365234,422-82.079708099365234"/>
    <path class="cls-32" d="M566.6962890625,529.348052978515625c211,0,211-307.66424560546875,422-307.66424560546875"/>
    <path class="cls-11" d="M566.6962890625,439.181396484375c211,0,211-220.896133422851562,422-220.896133422851562"/>
    <path class="cls-52" d="M566.6962890625,482.565460205078125c211,0,211-390.698074340820312,422-390.698074340820312"/>
    <path class="cls-4" d="M566.6962890625,222.19830322265625c211,0,211-141.659420013427734,422-141.659420013427734"/>
    <path class="cls-39" d="M566.6962890625,418.79010009765625c211,0,211-382.369573593139648,422-382.369573593139648"/>
    <path class="cls-44" d="M566.6962890625,499.15966796875c211,0,211-88.205322265625,422-88.205322265625"/>
    <path class="cls-54" d="M566.6962890625,136.961585998535156c211,0,211-58.688404083251953,422-58.688404083251953"/>
    <path class="cls-4" d="M566.6962890625,228.995407104492188c211,0,211,365.900955200195312,422,365.900955200195312"/>
    <path class="cls-65" d="M566.6962890625,207.869796752929688c211,0,211,19.0797119140625,422,19.0797119140625"/>
    <path class="cls-43" d="M566.6962890625,460.705535888671875c211,0,211,55.016937255859375,422,55.016937255859375"/>
    <path class="cls-18" d="M566.6962890625,315.02923583984375c211,0,211,39.34539794921875,422,39.34539794921875"/>
    <path class="cls-45" d="M566.6962890625,147.89154052734375c211,0,211,359.900970458984375,422,359.900970458984375"/>
    <path class="cls-43" d="M566.6962890625,424.454345703125c211,0,211-369.572467803955078,422-369.572467803955078"/>
    <path class="cls-32" d="M566.6962890625,574.66204833984375c211,0,211,12.70294189453125,422,12.70294189453125"/>
    <path class="cls-1" d="M566.6962890625,106.038887023925781c211,0,211,417.214958190917969,422,417.214958190917969"/>
    <path class="cls-8" d="M566.6962890625,398.797332763671875c211,0,211-183.910629272460938,422-183.910629272460938"/>
    <path class="cls-41" d="M566.6962890625,342.217620849609375c211,0,211,97.39373779296875,422,97.39373779296875"/>
    <path class="cls-32" d="M566.6962890625,563.33355712890625c211,0,211-45.34539794921875,422-45.34539794921875"/>
    <path class="cls-18" d="M566.6962890625,274.246612548828125c211,0,211-191.442031860351562,422-191.442031860351562"/>
    <path class="cls-32" d="M566.6962890625,561.06787109375c211,0,211-128.9879150390625,422-128.9879150390625"/>
    <path class="cls-42" d="M566.6962890625,395.398773193359375c211,0,211-309.195640563964844,422-309.195640563964844"/>
    <path class="cls-22" d="M566.6962890625,475.0340576171875c211,0,211-30.89129638671875,422-30.89129638671875"/>
    <path class="cls-43" d="M566.6962890625,444.84564208984375c211,0,211-201.301925659179688,422-201.301925659179688"/>
    <path class="cls-44" d="M566.6962890625,501.42535400390625c211,0,211-55.01690673828125,422-55.01690673828125"/>
    <path class="cls-57" d="M566.6962890625,120.367385864257812c211,0,211,227.210159301757812,422,227.210159301757812"/>
    <path class="cls-57" d="M566.6962890625,124.898788452148438c211,0,211,341.838150024414062,422,341.838150024414062"/>
    <path class="cls-18" d="M566.6962890625,355.81182861328125c211,0,211,229.28741455078125,422,229.28741455078125"/>
    <path class="cls-52" d="M566.6962890625,489.362548828125c211,0,211-18.094207763671875,422-18.094207763671875"/>
    <path class="cls-32" d="M566.6962890625,558.80218505859375c211,0,211-145.5821533203125,422-145.5821533203125"/>
    <path class="cls-68" d="M566.6962890625,181.079940795898438c211,0,211,169.896133422851562,422,169.896133422851562"/>
    <path class="cls-27" d="M566.6962890625,53.256275177001953c211,0,211,292.055553436279297,422,292.055553436279297"/>
    <path class="cls-19" d="M566.6962890625,465.2369384765625c211,0,211,98.73675537109375,422,98.73675537109375"/>
    <path class="cls-38" d="M566.6962890625,234.2611083984375c211,0,211-214.833336234092712,422-214.833336234092712"/>
    <path class="cls-52" d="M566.6962890625,480.29974365234375c211,0,211-423.152164459228516,422-423.152164459228516"/>
    <path class="cls-65" d="M566.6962890625,210.135498046875c211,0,211,77.92510986328125,422,77.92510986328125"/>
    <path class="cls-57" d="M566.6962890625,129.430191040039062c211,0,211,451.137680053710938,422,451.137680053710938"/>
    <path class="cls-9" d="M566.6962890625,200.338394165039062c211,0,211,382.495162963867188,422,382.495162963867188"/>
    <path class="cls-18" d="M566.6962890625,312.763519287109375c211,0,211,27.282623291015625,422,27.282623291015625"/>
    <path class="cls-26" d="M566.6962890625,379.93743896484375c211,0,211-23.297119140625,422-23.297119140625"/>
    <path class="cls-8" d="M566.6962890625,403.3287353515625c211,0,211-39.157012939453125,422-39.157012939453125"/>
    <path class="cls-57" d="M566.6962890625,118.1016845703125c211,0,211,167.6932373046875,422,167.6932373046875"/>
    <path class="cls-53" d="M566.6962890625,264.449508666992188c211,0,211,266.335769653320312,422,266.335769653320312"/>
    <path class="cls-68" d="M566.6962890625,165.220046997070312c211,0,211-23.171501159667969,422-23.171501159667969"/>
    <path class="cls-68" d="M566.6962890625,160.688644409179688c211,0,211-57.891304016113281,422-57.891304016113281"/>
    <path class="cls-43" d="M566.6962890625,458.439849853515625c211,0,211,33.157012939453125,422,33.157012939453125"/>
    <path class="cls-38" d="M566.6962890625,254.65240478515625c211,0,211,273.867156982421875,422,273.867156982421875"/>
    <path class="cls-60" d="M566.6962890625,65.319076538085938c211,0,211,112.582122802734375,422,112.582122802734375"/>
    <path class="cls-38" d="M566.6962890625,247.855300903320312c211,0,211,7.751220703125,422,7.751220703125"/>
    <path class="cls-44" d="M566.6962890625,503.691070556640625c211,0,211,29.359893798828125,422,29.359893798828125"/>
    <path class="cls-32" d="M566.6962890625,552.00506591796875c211,0,211-251.88165283203125,422-251.88165283203125"/>
    <path class="cls-16" d="M566.6962890625,61.920524597167969c211,0,211,64.268119812011719,422,64.268119812011719"/>
    <path class="cls-17" d="M566.6962890625,542.9422607421875c211,0,211-269.21014404296875,422-269.21014404296875"/>
    <path class="cls-49" d="M566.6962890625,571.2635498046875c211,0,211-1.6256103515625,422-1.6256103515625"/>
    <path class="cls-53" d="M566.6962890625,262.183807373046875c211,0,211-79.751205444335938,422-79.751205444335938"/>
    <path class="cls-44" d="M566.6962890625,496.893951416015625c211,0,211-328.78985595703125,422-328.78985595703125"/>
    <path class="cls-52" d="M566.6962890625,484.831146240234375c211,0,211-318.992752075195312,422-318.992752075195312"/>
    <path class="cls-42" d="M566.6962890625,408.99298095703125c211,0,211,149.31640625,422,149.31640625"/>
    <path class="cls-38" d="M566.6962890625,256.918106079101562c211,0,211,295.727035522460938,422,295.727035522460938"/>
    <path class="cls-29" d="M566.6962890625,320.6934814453125c211,0,211,52.14251708984375,422,52.14251708984375"/>
    <path class="cls-52" d="M566.6962890625,487.09686279296875c211,0,211-222.42755126953125,422-222.42755126953125"/>
    <path class="cls-63" d="M566.6962890625,144.492988586425781c211,0,211,108.847831726074219,422,108.847831726074219"/>
    <path class="cls-57" d="M566.6962890625,115.835983276367188c211,0,211,18.282608032226562,422,18.282608032226562"/>
    <path class="cls-18" d="M566.6962890625,276.512298583984375c211,0,211-170.316413879394531,422-170.316413879394531"/>
    <path class="cls-40" d="M566.6962890625,361.077545166015625c211,0,211-252.615959167480469,422-252.615959167480469"/>
    <path class="cls-27" d="M566.6962890625,50.990573883056641c211,0,211,254.398555755615234,422,254.398555755615234"/>
    <path class="cls-40" d="M566.6962890625,365.608917236328125c211,0,211-67.751190185546875,422-67.751190185546875"/>
    <path class="cls-21" d="M566.6962890625,84.178977966308594c211,0,211,45.408210754394531,422,45.408210754394531"/>
    <path class="cls-18" d="M566.6962890625,353.546142578125c211,0,211,201.36474609375,422,201.36474609375"/>
    <path class="cls-1" d="M566.6962890625,99.241783142089844c211,0,211,32.611106872558594,422,32.611106872558594"/>
    <path class="cls-65" d="M566.6962890625,212.401199340820312c211,0,211,157.036239624023438,422,157.036239624023438"/>
    <path class="cls-38" d="M566.6962890625,236.526809692382812c211,0,211-91.0797119140625,422-91.0797119140625"/>
    <path class="cls-49" d="M566.6962890625,525.94952392578125c211,0,211-354.446868896484375,422-354.446868896484375"/>
    <path class="cls-43" d="M566.6962890625,447.111358642578125c211,0,211-184.707748413085938,422-184.707748413085938"/>
    <path class="cls-19" d="M566.6962890625,433.51715087890625c211,0,211-272.210159301757812,422-272.210159301757812"/>
    <path class="cls-8" d="M566.6962890625,401.06304931640625c211,0,211-83.611114501953125,422-83.611114501953125"/>
    <path class="cls-4" d="M566.6962890625,224.464004516601562c211,0,211-44.297103881835938,422-44.297103881835938"/>
    <path class="cls-26" d="M566.6962890625,373.14031982421875c211,0,211-216.364715576171875,422-216.364715576171875"/>
    <path class="cls-34" d="M566.6962890625,154.290084838867188c211,0,211-15.640090942382812,422-15.640090942382812"/>
    <path class="cls-1" d="M566.6962890625,101.507484436035156c211,0,211,191.818840026855469,422,191.818840026855469"/>
    <path class="cls-18" d="M566.6962890625,310.497833251953125c211,0,211-14.90582275390625,422-14.90582275390625"/>
    <path class="cls-29" d="M566.6962890625,307.099273681640625c211,0,211-48.094207763671875,422-48.094207763671875"/>
    <path class="cls-1" d="M566.6962890625,103.773185729980469c211,0,211,231.007240295410156,422,231.007240295410156"/>
    <path class="cls-43" d="M566.6962890625,428.985748291015625c211,0,211-318.258460998535156,422-318.258460998535156"/>
    <path class="cls-8" d="M566.6962890625,405.594451904296875c211,0,211,48.34539794921875,422,48.34539794921875"/>
    <path class="cls-60" d="M566.6962890625,58.521976470947266c211,0,211,40.876811981201172,422,40.876811981201172"/>
    <path class="cls-32" d="M566.6962890625,565.5992431640625c211,0,211-30.2825927734375,422-30.2825927734375"/>
    <path class="cls-32" d="M566.6962890625,554.270751953125c211,0,211-224.756011962890625,422-224.756011962890625"/>
    <path class="cls-60" d="M566.6962890625,74.381877899169922c211,0,211,473.731891632080078,422,473.731891632080078"/>
    <path class="cls-21" d="M566.6962890625,88.710380554199219c211,0,211,362.963783264160156,422,362.963783264160156"/>
    <path class="cls-4" d="M566.6962890625,219.932601928710938c211,0,211-172.582124710083008,422-172.582124710083008"/>
    <path class="cls-57" d="M566.6962890625,111.304580688476562c211,0,211-66.219802856445312,422-66.219802856445312"/>
    <path class="cls-21" d="M566.6962890625,86.444679260253906c211,0,211,236.272941589355469,422,236.272941589355469"/>
    <path class="cls-40" d="M566.6962890625,363.343231201171875c211,0,211-171.847824096679688,422-171.847824096679688"/>
    <path class="cls-9" d="M566.6962890625,198.07269287109375c211,0,211,352.3067626953125,422,352.3067626953125"/>
    <path class="cls-32" d="M566.6962890625,522.55096435546875c211,0,211-409.557975769042969,422-409.557975769042969"/>
  </g>
  <g>
    <text class="cls-72" transform="translate(519.35546875 32.794921875)"><tspan x="0" y="0">nota_proyecto</tspan></text>
    <text class="cls-72" transform="translate(964.025390625 10.294921875)"><tspan x="0" y="0">profe_guia</tspan></text>
    <text class="cls-72" transform="translate(76.361328125 58.294921875)"><tspan x="0" y="0">titulo_profesional</tspan></text>
  </g>
  <g>
    <g class="cls-70">
      <text class="cls-71" transform="translate(571.19677734375 50.146484375)"><tspan x="0" y="0">4</tspan></text>
    </g>
    <g class="cls-70">
      <text class="cls-71" transform="translate(571.19677734375 71.2720947265625)"><tspan x="0" y="0">4.5</tspan></text>
    </g>
    <g class="cls-70">
      <text class="cls-71" transform="translate(571.19677734375 88.9991455078125)"><tspan x="0" y="0">4.6</tspan></text>
    </g>
    <g class="cls-70">
      <text class="cls-71" transform="translate(571.19677734375 96.53057861328125)"><tspan x="0" y="0">4.7</tspan></text>
    </g>
    <g class="cls-70">
      <text class="cls-71" transform="translate(571.19677734375 105.19482421875)"><tspan x="0" y="0">4.8</tspan></text>
    </g>
    <g class="cls-70">
      <text class="cls-71" transform="translate(571.19677734375 122.921875)"><tspan x="0" y="0">5</tspan></text>
    </g>
    <g class="cls-70">
      <text class="cls-71" transform="translate(571.19677734375 138.38323974609375)"><tspan x="0" y="0">5.2</tspan></text>
    </g>
    <g class="cls-70">
      <text class="cls-71" transform="translate(571.19677734375 148.1802978515625)"><tspan x="0" y="0">5.3</tspan></text>
    </g>
    <g class="cls-70">
      <text class="cls-71" transform="translate(571.19677734375 156.8446044921875)"><tspan x="0" y="0">5.4</tspan></text>
    </g>
    <g class="cls-70">
      <text class="cls-71" transform="translate(571.19677734375 183.6343994140625)"><tspan x="0" y="0">5.5</tspan></text>
    </g>
    <g class="cls-70">
      <text class="cls-71" transform="translate(571.19677734375 213.8228759765625)"><tspan x="0" y="0">5.6</tspan></text>
    </g>
    <g class="cls-70">
      <text class="cls-71" transform="translate(571.19677734375 227.01849365234375)"><tspan x="0" y="0">5.7</tspan></text>
    </g>
    <g class="cls-70">
      <text class="cls-71" transform="translate(571.19677734375 248.14410400390625)"><tspan x="0" y="0">5.8</tspan></text>
    </g>
    <g class="cls-70">
      <text class="cls-71" transform="translate(571.19677734375 265.87115478515625)"><tspan x="0" y="0">5.9</tspan></text>
    </g>
    <g class="cls-70">
      <text class="cls-71" transform="translate(571.19677734375 315.3179931640625)"><tspan x="0" y="0">6</tspan></text>
    </g>
    <g class="cls-70">
      <text class="cls-71" transform="translate(571.19677734375 365.897705078125)"><tspan x="0" y="0">6.1</tspan></text>
    </g>
    <g class="cls-70">
      <text class="cls-71" transform="translate(571.19677734375 380.2261962890625)"><tspan x="0" y="0">6.2</tspan></text>
    </g>
    <g class="cls-70">
      <text class="cls-71" transform="translate(571.19677734375 402.48468017578125)"><tspan x="0" y="0">6.3</tspan></text>
    </g>
    <g class="cls-70">
      <text class="cls-71" transform="translate(571.19677734375 445.13446044921875)"><tspan x="0" y="0">6.5</tspan></text>
    </g>
    <g class="cls-70">
      <text class="cls-71" transform="translate(571.19677734375 477.58856201171875)"><tspan x="0" y="0">6.6</tspan></text>
    </g>
    <g class="cls-70">
      <text class="cls-71" transform="translate(571.19677734375 487.3856201171875)"><tspan x="0" y="0">6.7</tspan></text>
    </g>
    <g class="cls-70">
      <text class="cls-71" transform="translate(571.19677734375 501.71417236328125)"><tspan x="0" y="0">6.8</tspan></text>
    </g>
    <g class="cls-70">
      <text class="cls-71" transform="translate(571.19677734375 544.3638916015625)"><tspan x="0" y="0">7</tspan></text>
    </g>
  </g>
  <g>
    <g class="cls-70">
      <text class="cls-71" transform="translate(0 74.95941162109375)"><tspan x="0" y="0">Diseñador</tspan></text>
    </g>
    <g class="cls-70">
      <text class="cls-71" transform="translate(0 100.616455078125)"><tspan x="0" y="0">Diseñador con mención </tspan><tspan x="0" y="12">Industrial y Servicios</tspan></text>
    </g>
    <g class="cls-70">
      <text class="cls-71" transform="translate(0 137.6019287109375)"><tspan x="0" y="0">Diseñador con mención </tspan><tspan x="0" y="12">en </tspan><tspan class="cls-75" x="14.4482421875" y="12">V</tspan><tspan x="20.9375" y="12">isualidad y Medios</tspan></text>
    </g>
    <g class="cls-70">
      <text class="cls-71" transform="translate(0 179.11883544921875)"><tspan x="0" y="0">Diseñadora</tspan></text>
    </g>
    <g class="cls-70">
      <text class="cls-71" transform="translate(0 278.4111328125)"><tspan x="0" y="0">Diseñadora con mención </tspan><tspan x="0" y="12">Industrial y Servicios</tspan></text>
    </g>
    <g class="cls-70">
      <text class="cls-71" transform="translate(0 454.7371826171875)"><tspan x="0" y="0">Diseñadora con mención </tspan><tspan x="0" y="12">en </tspan><tspan class="cls-75" x="14.4482421875" y="12">V</tspan><tspan x="20.9375" y="12">isualidad y Medios</tspan></text>
    </g>
  </g>
  <g>
    <g class="cls-70">
      <text class="cls-73" transform="translate(1057.6796875 30.31005859375)"><tspan x="0" y="0">Abud Carrillo, Jenny</tspan></text>
    </g>
    <g class="cls-70">
      <text class="cls-73" transform="translate(1022.0888671875 48.904296875)"><tspan x="0" y="0">Benavides Bermúdez, Paola</tspan></text>
    </g>
    <g class="cls-70">
      <text class="cls-73" transform="translate(1026.56640625 65.36572265625)"><tspan x="0" y="0">Castillo Espinoza, Eduardo</tspan></text>
    </g>
    <g class="cls-70">
      <text class="cls-73" transform="translate(1047.1083984375 85.7569580078125)"><tspan x="0" y="0">Cortez Orellana, Felipe</tspan></text>
    </g>
    <g class="cls-70">
      <text class="cls-73" transform="translate(1025.990234375 106.882568359375)"><tspan x="0" y="0">De la Sotta Lazzerini, Paola</tspan></text>
    </g>
    <g class="cls-70">
      <text class="cls-73" transform="translate(1022.1279296875 146.1337890625)"><tspan x="0" y="0">Domínguez González, Pablo</tspan></text>
    </g>
    <g class="cls-70">
      <text class="cls-73" transform="translate(1033.2265625 185.385009765625)"><tspan x="0" y="0">Donoso Cisternas, Sergio</tspan></text>
    </g>
    <g class="cls-70">
      <text class="cls-73" transform="translate(1024.33984375 209.9091796875)"><tspan x="0" y="0">Dueñas Santande</tspan><tspan class="cls-77" x="67.12890625" y="0">r</tspan><tspan x="69.80078125" y="0">, Rodrigo</tspan></text>
    </g>
    <g class="cls-70">
      <text class="cls-73" transform="translate(1042.6357421875 233.300537109375)"><tspan x="0" y="0">Gatica Ramírez, Pamela</tspan></text>
    </g>
    <g class="cls-70">
      <text class="cls-73" transform="translate(1051.0048828125 246.49609375)"><tspan x="0" y="0">Gómez Moya, Cristián</tspan></text>
    </g>
    <g class="cls-70">
      <text class="cls-73" transform="translate(1045.443359375 267.6217041015625)"><tspan x="0" y="0">Jacob Dazarola, Rubén</tspan></text>
    </g>
    <g class="cls-70">
      <text class="cls-73" transform="translate(1056.732421875 287.614501953125)"><tspan x="0" y="0">Jove</tspan><tspan class="cls-76" x="18.234375" y="0" xml:space="preserve"> A</tspan><tspan x="25.640625" y="0">vilés, </tspan><tspan class="cls-77" x="47.87890625" y="0">T</tspan><tspan x="52.32421875" y="0">rinidad</tspan></text>
    </g>
    <g class="cls-70">
      <text class="cls-73" transform="translate(1063.7880859375 297.41162109375)"><tspan x="0" y="0">Lares López, Lorna</tspan></text>
    </g>
    <g class="cls-70">
      <text class="cls-73" transform="translate(1034.9013671875 307.208740234375)"><tspan x="0" y="0">Lepe Muñoz, Juan Carlos</tspan></text>
    </g>
    <g class="cls-70">
      <text class="cls-73" transform="translate(1013.2314453125 315.8729248046875)"><tspan x="0" y="0">Maldonado de la Fuente, Felix</tspan></text>
    </g>
    <g class="cls-70">
      <text class="cls-73" transform="translate(1041.9423828125 326.8028564453125)"><tspan x="0" y="0">Marín Pacheco,</tspan><tspan class="cls-76" x="58.6875" y="0"> </tspan><tspan x="60.61328125" y="0">Antonio</tspan></text>
    </g>
    <g class="cls-70">
      <text class="cls-73" transform="translate(1053.79296875 335.4671630859375)"><tspan x="0" y="0">Molina Oyarzún, Raúl</tspan></text>
    </g>
    <g class="cls-70">
      <text class="cls-73" transform="translate(1051.3857421875 340.73291015625)"><tspan x="0" y="0">Mora Briones,</tspan><tspan class="cls-76" x="53.34375" y="0"> </tspan><tspan x="55.26953125" y="0">Alfredo</tspan></text>
    </g>
    <g class="cls-70">
      <text class="cls-73" transform="translate(1032.09375 351.662811279296875)"><tspan x="0" y="0">Morales Mujica, María Paz</tspan></text>
    </g>
    <g class="cls-70">
      <text class="cls-73" transform="translate(1050.9853515625 363.725616455078125)"><tspan x="0" y="0">Méndez Olivares, Iván</tspan></text>
    </g>
    <g class="cls-70">
      <text class="cls-73" transform="translate(1046.009765625 373.522735595703125)"><tspan x="0" y="0">Nuñez Gutiérrez, Pablo</tspan></text>
    </g>
    <g class="cls-70">
      <text class="cls-73" transform="translate(1059.3203125 398.046844482421875)"><tspan x="0" y="0">Ode Saleh, </tspan><tspan class="cls-77" x="43.5703125" y="0">V</tspan><tspan x="48.46484375" y="0">erónica</tspan></text>
    </g>
    <g class="cls-70">
      <text class="cls-73" transform="translate(1048.7734375 425.969573974609375)"><tspan x="0" y="0">Osses Flores, Roberto</tspan></text>
    </g>
    <g class="cls-70">
      <text class="cls-73" transform="translate(1019.3203125 442.563751220703125)"><tspan x="0" y="0">Pagueguy Fenne</tspan><tspan class="cls-77" x="64.01171875" y="0">r</tspan><tspan x="66.68359375" y="0">, Sebastián</tspan></text>
    </g>
    <g class="cls-70">
      <text class="cls-73" transform="translate(1057.6455078125 453.493743896484375)"><tspan x="0" y="0">Perea Morales, René</tspan></text>
    </g>
    <g class="cls-70">
      <text class="cls-73" transform="translate(1065.462890625 461.025115966796875)"><tspan x="0" y="0">Perelli Soto, Bruno</tspan></text>
    </g>
    <g class="cls-70">
      <text class="cls-73" transform="translate(1002.0986328125 469.689361572265625)"><tspan x="0" y="0">Pradenas Guentherodt, Gabriela</tspan></text>
    </g>
    <g class="cls-70">
      <text class="cls-73" transform="translate(1063.7734375 479.486480712890625)"><tspan x="0" y="0">Reyes León, Daniel</tspan></text>
    </g>
    <g class="cls-70">
      <text class="cls-73" transform="translate(1051.546875 487.017852783203125)"><tspan x="0" y="0">Ruiz Balart, Macarena</tspan></text>
    </g>
    <g class="cls-70">
      <text class="cls-73" transform="translate(1034.33984375 492.283599853515625)"><tspan x="0" y="0">Santibañez Boric, Mónica</tspan></text>
    </g>
    <g class="cls-70">
      <text class="cls-73" transform="translate(1040.443359375 497.549285888671875)"><tspan x="0" y="0">Silva Roquefort, Rebeca</tspan></text>
    </g>
    <g class="cls-70">
      <text class="cls-73" transform="translate(1042.69921875 510.744903564453125)"><tspan x="0" y="0">Soto Calquín, Leonardo</tspan></text>
    </g>
    <g class="cls-70">
      <text class="cls-73" transform="translate(1054.330078125 523.940582275390625)"><tspan x="0" y="0">Stange Marcus, Hans</tspan></text>
    </g>
    <g class="cls-70">
      <text class="cls-73" transform="translate(1051.17578125 532.604827880859375)"><tspan class="cls-69" x="0" y="0">T</tspan><tspan x="4.29296875" y="0">apia Reyes, Mauricio</tspan></text>
    </g>
    <g class="cls-70">
      <text class="cls-73" transform="translate(1044.5107421875 542.401947021484375)"><tspan class="cls-75" x="0" y="0">V</tspan><tspan x="5.19140625" y="0">ico Sánchez, Mauricio</tspan></text>
    </g>
    <g class="cls-70">
      <text class="cls-73" transform="translate(1034.8720703125 560.128997802734375)"><tspan class="cls-75" x="0" y="0">W</tspan><tspan x="7.40625" y="0">echsler Pizarro,</tspan><tspan class="cls-76" x="66.9921875" y="0"> </tspan><tspan x="68.91796875" y="0">Andrea</tspan></text>
    </g>
    <g class="cls-70">
      <text class="cls-73" transform="translate(1051.556640625 582.387481689453125)"><tspan class="cls-69" x="0" y="0">Y</tspan><tspan x="4.7421875" y="0">oung</tspan><tspan class="cls-76" x="24.2890625" y="0"> </tspan><tspan x="26.21484375" y="0">Araya, Mariana</tspan></text>
    </g>
    <g class="cls-70">
      <text class="cls-73" transform="translate(1016.009765625 595.583099365234375)"><tspan x="0" y="0">Zorzano Betancourt, Osvaldo</tspan></text>
    </g>
  </g>
</svg>