<svg xmlns="http://www.w3.org/2000/svg" viewBox="0 0 1005 600"><rect width="1005" height="600" x="0" y="0" fill="#FFFFFF" id="background"/><g id="viz"><g transform="translate(0,0)"><g transform="translate(50,20)"><g class="bars"><rect id="undefined - Aprueban" x="11.826376807126564" y="536" height="24" width="44.63744519612188" fill="#1f77b4"/><rect id="undefined - Reprueban" x="58.42264914150084" y="352" height="208" width="44.63744519612188" fill="#f5a623"/><rect id="undefined - Aprueban" x="116.84529828300167" y="480.00000000000006" height="79.99999999999994" width="44.63744519612188" fill="#1f77b4"/><rect id="undefined - Reprueban" x="163.44157061737593" y="288" height="272" width="44.63744519612188" fill="#f5a623"/><rect id="undefined - Aprueban" x="221.86421975887677" y="472" height="88" width="44.63744519612188" fill="#1f77b4"/><rect id="undefined - Reprueban" x="268.46049209325105" y="88" height="472" width="44.63744519612188" fill="#f5a623"/><rect id="undefined - Aprueban" x="326.88314123475186" y="400" height="160" width="44.63744519612188" fill="#1f77b4"/><rect id="undefined - Reprueban" x="373.4794135691261" y="184.00000000000003" height="376" width="44.63744519612188" fill="#f5a623"/><rect id="undefined - Aprueban" x="431.902062710627" y="120.00000000000001" height="440" width="44.63744519612188" fill="#1f77b4"/><rect id="undefined - Reprueban" x="478.4983350450012" y="215.99999999999997" height="344" width="44.63744519612188" fill="#f5a623"/><rect id="undefined - Aprueban" x="536.920984186502" y="248" height="312" width="44.63744519612188" fill="#1f77b4"/><rect id="undefined - Reprueban" x="583.5172565208763" y="392" height="168" width="44.63744519612188" fill="#f5a623"/><rect id="undefined - Aprueban" x="641.9399056623772" y="7.999999999999972" height="552" width="44.63744519612188" fill="#1f77b4"/><rect id="undefined - Reprueban" x="688.5361779967515" y="152.00000000000003" height="408" width="44.63744519612188" fill="#f5a623"/></g><g id="xAxis" transform="translate(0,560)" fill="none" font-size="10" font-family="sans-serif" text-anchor="middle"><path class="domain" stroke="currentColor" d="M0.5,0.5H745.5"/><g class="tick" opacity="1" transform="translate(57.44323557237465,0)"><line stroke="currentColor" y2="6"/><text fill="currentColor" y="9" dy="0.71em">2021-2</text></g><g class="tick" opacity="1" transform="translate(162.46215704824976,0)"><line stroke="currentColor" y2="6"/><text fill="currentColor" y="9" dy="0.71em">2022-1</text></g><g class="tick" opacity="1" transform="translate(267.4810785241249,0)"><line stroke="currentColor" y2="6"/><text fill="currentColor" y="9" dy="0.71em">2022-2</text></g><g class="tick" opacity="1" transform="translate(372.49999999999994,0)"><line stroke="currentColor" y2="6"/><text fill="currentColor" y="9" dy="0.71em">2023-1</text></g><g class="tick" opacity="1" transform="translate(477.51892147587506,0)"><line stroke="currentColor" y2="6"/><text fill="currentColor" y="9" dy="0.71em">2023-2</text></g><g class="tick" opacity="1" transform="translate(582.5378429517501,0)"><line stroke="currentColor" y2="6"/><text fill="currentColor" y="9" dy="0.71em">2024-1</text></g><g class="tick" opacity="1" transform="translate(687.5567644276252,0)"><line stroke="currentColor" y2="6"/><text fill="currentColor" y="9" dy="0.71em">2024-2</text></g></g><g id="yAxis" fill="none" font-size="10" font-family="sans-serif" text-anchor="end"><path class="domain" stroke="currentColor" d="M0.5,560.5V0.5"/><g class="tick" opacity="1" transform="translate(0,560.5)"><line stroke="currentColor" x2="-6"/><text fill="currentColor" x="-9" dy="0.32em">0</text></g><g class="tick" opacity="1" transform="translate(0,520.5)"><line stroke="currentColor" x2="-6"/><text fill="currentColor" x="-9" dy="0.32em">5</text></g><g class="tick" opacity="1" transform="translate(0,480.50000000000006)"><line stroke="currentColor" x2="-6"/><text fill="currentColor" x="-9" dy="0.32em">10</text></g><g class="tick" opacity="1" transform="translate(0,440.5)"><line stroke="currentColor" x2="-6"/><text fill="currentColor" x="-9" dy="0.32em">15</text></g><g class="tick" opacity="1" transform="translate(0,400.5)"><line stroke="currentColor" x2="-6"/><text fill="currentColor" x="-9" dy="0.32em">20</text></g><g class="tick" opacity="1" transform="translate(0,360.49999999999994)"><line stroke="currentColor" x2="-6"/><text fill="currentColor" x="-9" dy="0.32em">25</text></g><g class="tick" opacity="1" transform="translate(0,320.5)"><line stroke="currentColor" x2="-6"/><text fill="currentColor" x="-9" dy="0.32em">30</text></g><g class="tick" opacity="1" transform="translate(0,280.5)"><line stroke="currentColor" x2="-6"/><text fill="currentColor" x="-9" dy="0.32em">35</text></g><g class="tick" opacity="1" transform="translate(0,240.50000000000003)"><line stroke="currentColor" x2="-6"/><text fill="currentColor" x="-9" dy="0.32em">40</text></g><g class="tick" opacity="1" transform="translate(0,200.49999999999997)"><line stroke="currentColor" x2="-6"/><text fill="currentColor" x="-9" dy="0.32em">45</text></g><g class="tick" opacity="1" transform="translate(0,160.5)"><line stroke="currentColor" x2="-6"/><text fill="currentColor" x="-9" dy="0.32em">50</text></g><g class="tick" opacity="1" transform="translate(0,120.50000000000001)"><line stroke="currentColor" x2="-6"/><text fill="currentColor" x="-9" dy="0.32em">55</text></g><g class="tick" opacity="1" transform="translate(0,80.50000000000003)"><line stroke="currentColor" x2="-6"/><text fill="currentColor" x="-9" dy="0.32em">60</text></g><g class="tick" opacity="1" transform="translate(0,40.499999999999986)"><line stroke="currentColor" x2="-6"/><text fill="currentColor" x="-9" dy="0.32em">65</text></g><g class="tick" opacity="1" transform="translate(0,0.5)"><line stroke="currentColor" x2="-6"/><text fill="currentColor" x="-9" dy="0.32em">70</text></g></g><text y="556" x="745" text-anchor="end" style="font-family: Arial, sans-serif; font-size: 12px; fill: rgb(123, 123, 123); font-weight: bold;">Sets</text><text y="0" x="4" dominant-baseline="hanging" text-anchor="start" style="font-family: Arial, sans-serif; font-size: 12px; fill: rgb(123, 123, 123); font-weight: bold;">Value</text></g><text x="4" y="4" style="font-family: Arial, sans-serif; font-size: 12px; fill: black; font-weight: bold; dominant-baseline: hanging;"/></g><g id="grid"><rect x="0" y="0" width="805" height="600" fill="none" stroke="#ccc"/></g></g><g id="legend" transform="translate(805,20)"><g transform="translate(5,0)"><g class="legendColor" transform="translate(0,0)"><g class="legendCells" transform="translate(0,16)"><g class="cell" transform="translate(0, 0)"><rect class="swatch" height="15" width="15" style="fill: rgb(31, 119, 180);"/><text class="label" transform="translate( 20, 12.5)" font-family="&quot;Arial&quot;, sans-serif" font-size="10px"><tspan x="0" dy="0em">Aprueban</tspan></text></g><g class="cell" transform="translate(0, 21)"><rect class="swatch" height="15" width="15" style="fill: rgb(245, 166, 35);"/><text class="label" transform="translate( 20, 12.5)" font-family="&quot;Arial&quot;, sans-serif" font-size="10px"><tspan x="0" dy="0em">Reprueban</tspan></text></g></g><text class="legendTitle" font-family="&quot;Arial&quot;, sans-serif" font-size="12px" font-weight="bold"><tspan x="0" dy="0em">Colors</tspan></text></g></g></g></svg>