<?xml version="1.0" encoding="UTF-8"?>
<svg id="Capa_1" data-name="Capa 1" xmlns="http://www.w3.org/2000/svg" xmlns:xlink="http://www.w3.org/1999/xlink" viewBox="0 0 511 511">
  <defs>
    <style>
      .cls-1 {
        stroke: #000;
      }

      .cls-1, .cls-2, .cls-3 {
        fill: none;
      }

      .cls-2 {
        stroke: #ccc;
      }

      .cls-4 {
        font-family: ArialMT, Arial;
        font-size: 7.285714149475098px;
      }

      .cls-4, .cls-5 {
        isolation: isolate;
      }

      .cls-6 {
        fill: #4a90e2;
        stroke: #fff;
      }

      .cls-7 {
        fill: #ffa300;
      }

      .cls-8 {
        clip-path: url(#clippath);
      }

      .cls-5 {
        fill: #7b7b7b;
        font-family: Arial-BoldMT, Arial;
        font-size: 8.742856979370117px;
        font-weight: 700;
      }
    </style>
    <clipPath id="clippath">
      <rect class="cls-3" x=".5" y=".5" width="510" height="510"/>
    </clipPath>
  </defs>
  <circle class="cls-7" cx="473.986658200583861" cy="37.122828722909617" r="5.222527933826541"/>
  <circle class="cls-7" cx="328.357142857143117" cy="182.537936191622066" r="5.222527933826768"/>
  <circle class="cls-7" cx="371.938477580821655" cy="138.928571428571558" r="5.222527933826541"/>
  <circle class="cls-7" cx="401.421689259649156" cy="110.051121271193551" r="5.222527933826541"/>
  <circle class="cls-7" cx="255.5" cy="255.5" r="5.222527933826768"/>
  <circle class="cls-7" cx="182.594994786240022" cy="328.231540722199043" r="5.222527933826996"/>
  <g class="cls-8">
    <g>
      <path class="cls-1" d="M36.928571428571558,478.442857142857974v-4.371428571428623h437.142857142857792v4.371428571428623"/>
      <g>
        <line class="cls-1" x1="36.928571428571558" y1="474.071428571429351" x2="36.928571428571558" y2="478.442857142857974"/>
        <text class="cls-4" transform="translate(31.8642578125 485.80096435546875)"><tspan x="0" y="0">4.0</tspan></text>
      </g>
      <g>
        <line class="cls-1" x1="66.071428571428442" y1="474.071428571429351" x2="66.071428571428442" y2="478.442857142857974"/>
        <text class="cls-4" transform="translate(61.00732421875 485.80096435546875)"><tspan x="0" y="0">4.2</tspan></text>
      </g>
      <g>
        <line class="cls-1" x1="95.214285714285325" y1="474.071428571429351" x2="95.214285714285325" y2="478.442857142857974"/>
        <text class="cls-4" transform="translate(90.150390625 485.80096435546875)"><tspan x="0" y="0">4.4</tspan></text>
      </g>
      <g>
        <line class="cls-1" x1="124.357142857143117" y1="474.071428571429351" x2="124.357142857143117" y2="478.442857142857974"/>
        <text class="cls-4" transform="translate(119.29296875 485.80096435546875)"><tspan x="0" y="0">4.6</tspan></text>
      </g>
      <g>
        <line class="cls-1" x1="153.5" y1="474.071428571429351" x2="153.5" y2="478.442857142857974"/>
        <text class="cls-4" transform="translate(148.435546875 485.80096435546875)"><tspan x="0" y="0">4.8</tspan></text>
      </g>
      <g>
        <line class="cls-1" x1="182.642857142856883" y1="474.071428571429351" x2="182.642857142856883" y2="478.442857142857974"/>
        <text class="cls-4" transform="translate(177.57861328125 485.80096435546875)"><tspan x="0" y="0">5.0</tspan></text>
      </g>
      <g>
        <line class="cls-1" x1="211.785714285714675" y1="474.071428571429351" x2="211.785714285714675" y2="478.442857142857974"/>
        <text class="cls-4" transform="translate(206.7216796875 485.80096435546875)"><tspan x="0" y="0">5.2</tspan></text>
      </g>
      <g>
        <line class="cls-1" x1="240.928571428571558" y1="474.071428571429351" x2="240.928571428571558" y2="478.442857142857974"/>
        <text class="cls-4" transform="translate(235.8642578125 485.80096435546875)"><tspan x="0" y="0">5.4</tspan></text>
      </g>
      <g>
        <line class="cls-1" x1="270.071428571428442" y1="474.071428571429351" x2="270.071428571428442" y2="478.442857142857974"/>
        <text class="cls-4" transform="translate(265.00732421875 485.80096435546875)"><tspan x="0" y="0">5.6</tspan></text>
      </g>
      <g>
        <line class="cls-1" x1="299.214285714285325" y1="474.071428571429351" x2="299.214285714285325" y2="478.442857142857974"/>
        <text class="cls-4" transform="translate(294.150390625 485.80096435546875)"><tspan x="0" y="0">5.8</tspan></text>
      </g>
      <g>
        <line class="cls-1" x1="328.357142857143117" y1="474.071428571429351" x2="328.357142857143117" y2="478.442857142857974"/>
        <text class="cls-4" transform="translate(323.29296875 485.80096435546875)"><tspan x="0" y="0">6.0</tspan></text>
      </g>
      <g>
        <line class="cls-1" x1="357.5" y1="474.071428571429351" x2="357.5" y2="478.442857142857974"/>
        <text class="cls-4" transform="translate(352.435546875 485.80096435546875)"><tspan x="0" y="0">6.2</tspan></text>
      </g>
      <g>
        <line class="cls-1" x1="386.642857142856883" y1="474.071428571429351" x2="386.642857142856883" y2="478.442857142857974"/>
        <text class="cls-4" transform="translate(381.578125 485.80096435546875)"><tspan x="0" y="0">6.4</tspan></text>
      </g>
      <g>
        <line class="cls-1" x1="415.785714285713766" y1="474.071428571429351" x2="415.785714285713766" y2="478.442857142857974"/>
        <text class="cls-4" transform="translate(410.7216796875 485.80096435546875)"><tspan x="0" y="0">6.6</tspan></text>
      </g>
      <g>
        <line class="cls-1" x1="444.928571428570649" y1="474.071428571429351" x2="444.928571428570649" y2="478.442857142857974"/>
        <text class="cls-4" transform="translate(439.8642578125 485.80096435546875)"><tspan x="0" y="0">6.8</tspan></text>
      </g>
      <g>
        <line class="cls-1" x1="474.071428571429351" y1="474.071428571429351" x2="474.071428571429351" y2="478.442857142857974"/>
        <text class="cls-4" transform="translate(469.0078125 485.80096435546875)"><tspan x="0" y="0">7.0</tspan></text>
      </g>
      <text class="cls-5" transform="translate(493.867187499998181 421.557800292970569) rotate(90.000000000000014)"><tspan x="0" y="0">nota_anteproyecto</tspan></text>
      <path class="cls-1" d="M32.557142857142935,474.071428571429351h4.371428571428623V36.928571428571558h-4.371428571428623"/>
      <g>
        <line class="cls-1" x1="36.928571428571558" y1="474.071428571429351" x2="32.557142857142935" y2="474.071428571429351"/>
        <text class="cls-4" transform="translate(20.2431640625 476.40252685546875)"><tspan x="0" y="0">4.0</tspan></text>
      </g>
      <g>
        <line class="cls-1" x1="36.928571428571558" y1="444.928571428570649" x2="32.557142857142935" y2="444.928571428570649"/>
        <text class="cls-4" transform="translate(20.2431640625 447.25994873046875)"><tspan x="0" y="0">4.2</tspan></text>
      </g>
      <g>
        <line class="cls-1" x1="36.928571428571558" y1="415.785714285713766" x2="32.557142857142935" y2="415.785714285713766"/>
        <text class="cls-4" transform="translate(20.2431640625 418.11737060546875)"><tspan x="0" y="0">4.4</tspan></text>
      </g>
      <g>
        <line class="cls-1" x1="36.928571428571558" y1="386.642857142856883" x2="32.557142857142935" y2="386.642857142856883"/>
        <text class="cls-4" transform="translate(20.2431640625 388.97381591796875)"><tspan x="0" y="0">4.6</tspan></text>
      </g>
      <g>
        <line class="cls-1" x1="36.928571428571558" y1="357.5" x2="32.557142857142935" y2="357.5"/>
        <text class="cls-4" transform="translate(20.2431640625 359.83123779296875)"><tspan x="0" y="0">4.8</tspan></text>
      </g>
      <g>
        <line class="cls-1" x1="36.928571428571558" y1="328.357142857143117" x2="32.557142857142935" y2="328.357142857143117"/>
        <text class="cls-4" transform="translate(20.2431640625 330.68865966796875)"><tspan x="0" y="0">5.0</tspan></text>
      </g>
      <g>
        <line class="cls-1" x1="36.928571428571558" y1="299.214285714286234" x2="32.557142857142935" y2="299.214285714286234"/>
        <text class="cls-4" transform="translate(20.2431640625 301.54608154296875)"><tspan x="0" y="0">5.2</tspan></text>
      </g>
      <g>
        <line class="cls-1" x1="36.928571428571558" y1="270.071428571429351" x2="32.557142857142935" y2="270.071428571429351"/>
        <text class="cls-4" transform="translate(20.2431640625 272.40252685546875)"><tspan x="0" y="0">5.4</tspan></text>
      </g>
      <g>
        <line class="cls-1" x1="36.928571428571558" y1="240.928571428570649" x2="32.557142857142935" y2="240.928571428570649"/>
        <text class="cls-4" transform="translate(20.2431640625 243.25994873046875)"><tspan x="0" y="0">5.6</tspan></text>
      </g>
      <g>
        <line class="cls-1" x1="36.928571428571558" y1="211.785714285713766" x2="32.557142857142935" y2="211.785714285713766"/>
        <text class="cls-4" transform="translate(20.2431640625 214.11737060546875)"><tspan x="0" y="0">5.8</tspan></text>
      </g>
      <g>
        <line class="cls-1" x1="36.928571428571558" y1="182.642857142856883" x2="32.557142857142935" y2="182.642857142856883"/>
        <text class="cls-4" transform="translate(20.2431640625 184.97381591796875)"><tspan x="0" y="0">6.0</tspan></text>
      </g>
      <g>
        <line class="cls-1" x1="36.928571428571558" y1="153.5" x2="32.557142857142935" y2="153.5"/>
        <text class="cls-4" transform="translate(20.2431640625 155.83123779296875)"><tspan x="0" y="0">6.2</tspan></text>
      </g>
      <g>
        <line class="cls-1" x1="36.928571428571558" y1="124.357142857143117" x2="32.557142857142935" y2="124.357142857143117"/>
        <text class="cls-4" transform="translate(20.2431640625 126.68865966796875)"><tspan x="0" y="0">6.4</tspan></text>
      </g>
      <g>
        <line class="cls-1" x1="36.928571428571558" y1="95.214285714286234" x2="32.557142857142935" y2="95.214285714286234"/>
        <text class="cls-4" transform="translate(20.2431640625 97.54559326171875)"><tspan x="0" y="0">6.6</tspan></text>
      </g>
      <g>
        <line class="cls-1" x1="36.928571428571558" y1="66.071428571428442" x2="32.557142857142935" y2="66.071428571428442"/>
        <text class="cls-4" transform="translate(20.2431640625 68.40252685546875)"><tspan x="0" y="0">6.8</tspan></text>
      </g>
      <g>
        <line class="cls-1" x1="36.928571428571558" y1="36.928571428571558" x2="32.557142857142935" y2="36.928571428571558"/>
        <text class="cls-4" transform="translate(20.2431640625 39.25994873046875)"><tspan x="0" y="0">7.0</tspan></text>
      </g>
      <text class="cls-5" transform="translate(14.2041015625 19.15740966796875)"><tspan x="0" y="0">nota_proyecto</tspan></text>
      <g id="viz">
        <circle class="cls-6" cx="430.357142857143117" cy="109.785714285714448" r="2.914285714285256"/>
        <circle class="cls-6" cx="401.214285714285779" cy="36.928571428571558" r="2.914285714285824"/>
        <circle class="cls-6" cx="328.35714285714289" cy="109.785714285714448" r="2.91428571428537"/>
        <circle class="cls-6" cx="401.214285714285779" cy="197.214285714285779" r="2.914285714285597"/>
        <circle class="cls-6" cx="328.35714285714289" cy="36.928571428571558" r="2.914285714285711"/>
        <circle class="cls-6" cx="372.071428571428896" cy="328.357142857143117" r="2.91428571428537"/>
        <circle class="cls-6" cx="401.214285714285779" cy="36.928571428571558" r="2.914285714285824"/>
        <circle class="cls-6" cx="459.5" cy="474.071428571428896" r="2.91428571428537"/>
        <circle class="cls-6" cx="474.071428571428896" cy="109.785714285714448" r="2.914285714285483"/>
        <circle class="cls-6" cx="401.214285714285779" cy="401.214285714285779" r="2.914285714285597"/>
        <circle class="cls-6" cx="401.214285714285779" cy="36.928571428571558" r="2.914285714285824"/>
        <circle class="cls-6" cx="474.071428571428896" cy="36.928571428571558" r="2.914285714285824"/>
        <circle class="cls-6" cx="474.071428571428896" cy="36.928571428571558" r="2.914285714285824"/>
        <circle class="cls-6" cx="474.071428571428896" cy="36.928571428571558" r="2.914285714285824"/>
        <circle class="cls-6" cx="401.214285714285779" cy="197.214285714285779" r="2.914285714285597"/>
        <circle class="cls-6" cx="401.214285714285779" cy="240.928571428571104" r="2.914285714286052"/>
        <circle class="cls-6" cx="182.64285714285711" cy="182.642857142856883" r="2.914285714285483"/>
        <circle class="cls-6" cx="299.214285714285552" cy="299.214285714285779" r="2.914285714285711"/>
        <circle class="cls-6" cx="328.35714285714289" cy="36.928571428571558" r="2.914285714285711"/>
        <circle class="cls-6" cx="284.64285714285711" cy="182.642857142856883" r="2.914285714285483"/>
        <circle class="cls-6" cx="474.071428571428896" cy="182.642857142856883" r="2.91428571428537"/>
        <circle class="cls-6" cx="313.785714285714448" cy="66.071428571428669" r="2.914285714285597"/>
        <circle class="cls-6" cx="459.5" cy="182.642857142856883" r="2.914285714285143"/>
        <circle class="cls-6" cx="444.928571428571104" cy="80.64285714285711" r="2.914285714286166"/>
        <circle class="cls-6" cx="313.785714285714448" cy="138.928571428571558" r="2.914285714285711"/>
        <circle class="cls-6" cx="328.35714285714289" cy="211.785714285714221" r="2.914285714285938"/>
        <circle class="cls-6" cx="372.071428571428896" cy="36.928571428571558" r="2.914285714285824"/>
        <circle class="cls-6" cx="328.35714285714289" cy="138.928571428571558" r="2.914285714285711"/>
        <circle class="cls-6" cx="342.928571428571331" cy="182.642857142856883" r="2.914285714285256"/>
        <circle class="cls-6" cx="474.071428571428896" cy="36.928571428571558" r="2.914285714285824"/>
        <circle class="cls-6" cx="415.785714285714221" cy="109.785714285714448" r="2.914285714285938"/>
        <circle class="cls-6" cx="444.928571428571104" cy="80.64285714285711" r="2.914285714286166"/>
        <circle class="cls-6" cx="372.071428571428896" cy="226.357142857143117" r="2.91428571428537"/>
        <circle class="cls-6" cx="386.642857142856883" cy="182.642857142856883" r="2.914285714285143"/>
        <circle class="cls-6" cx="372.071428571428896" cy="109.785714285714448" r="2.914285714285483"/>
        <circle class="cls-6" cx="197.214285714285552" cy="182.642857142856883" r="2.914285714285483"/>
        <circle class="cls-6" cx="328.35714285714289" cy="182.642857142856883" r="2.914285714285256"/>
        <circle class="cls-6" cx="401.214285714285779" cy="182.642857142856883" r="2.91428571428537"/>
        <circle class="cls-6" cx="357.5" cy="372.071428571428896" r="2.91428571428537"/>
        <circle class="cls-6" cx="138.928571428571331" cy="109.785714285714448" r="2.91428571428537"/>
        <circle class="cls-6" cx="36.928571428571331" cy="255.5" r="2.914285714285256"/>
        <circle class="cls-6" cx="357.5" cy="284.642857142856883" r="2.914285714285143"/>
        <circle class="cls-6" cx="255.5" cy="255.5" r="2.914285714285597"/>
        <circle class="cls-6" cx="474.071428571428896" cy="36.928571428571558" r="2.914285714285824"/>
        <circle class="cls-6" cx="255.5" cy="182.642857142856883" r="2.914285714285597"/>
        <circle class="cls-6" cx="386.642857142856883" cy="36.928571428571558" r="2.914285714285597"/>
        <circle class="cls-6" cx="401.214285714285779" cy="66.071428571428669" r="2.914285714285711"/>
        <circle class="cls-6" cx="255.5" cy="255.5" r="2.914285714285597"/>
        <circle class="cls-6" cx="401.214285714285779" cy="299.214285714285779" r="2.914285714285597"/>
        <circle class="cls-6" cx="474.071428571428896" cy="226.357142857143117" r="2.91428571428537"/>
        <circle class="cls-6" cx="474.071428571428896" cy="109.785714285714448" r="2.914285714285483"/>
        <circle class="cls-6" cx="474.071428571428896" cy="240.928571428571104" r="2.914285714286052"/>
        <circle class="cls-6" cx="474.071428571428896" cy="80.64285714285711" r="2.914285714285711"/>
        <circle class="cls-6" cx="342.928571428571331" cy="109.785714285714448" r="2.91428571428537"/>
        <circle class="cls-6" cx="328.35714285714289" cy="284.642857142856883" r="2.914285714285256"/>
        <circle class="cls-6" cx="401.214285714285779" cy="328.357142857143117" r="2.91428571428537"/>
        <circle class="cls-6" cx="328.35714285714289" cy="109.785714285714448" r="2.91428571428537"/>
        <circle class="cls-6" cx="182.64285714285711" cy="182.642857142856883" r="2.914285714285483"/>
        <circle class="cls-6" cx="255.5" cy="168.071428571428896" r="2.914285714285824"/>
        <circle class="cls-6" cx="401.214285714285779" cy="36.928571428571558" r="2.914285714285824"/>
        <circle class="cls-6" cx="401.214285714285779" cy="182.642857142856883" r="2.91428571428537"/>
        <circle class="cls-6" cx="401.214285714285779" cy="182.642857142856883" r="2.91428571428537"/>
        <circle class="cls-6" cx="299.214285714285552" cy="36.928571428571558" r="2.914285714285938"/>
        <circle class="cls-6" cx="474.071428571428896" cy="36.928571428571558" r="2.914285714285824"/>
        <circle class="cls-6" cx="401.214285714285779" cy="284.642857142856883" r="2.91428571428537"/>
        <circle class="cls-6" cx="255.5" cy="474.071428571428896" r="2.914285714285824"/>
        <circle class="cls-6" cx="328.35714285714289" cy="168.071428571428896" r="2.914285714285483"/>
        <circle class="cls-6" cx="168.071428571428442" cy="255.5" r="2.914285714285597"/>
        <circle class="cls-6" cx="444.928571428571104" cy="109.785714285714448" r="2.914285714285938"/>
        <circle class="cls-6" cx="182.64285714285711" cy="386.642857142856883" r="2.914285714285483"/>
        <circle class="cls-6" cx="255.5" cy="182.642857142856883" r="2.914285714285597"/>
        <circle class="cls-6" cx="299.214285714285552" cy="109.785714285714448" r="2.914285714285597"/>
        <circle class="cls-6" cx="255.5" cy="226.357142857143117" r="2.914285714285597"/>
        <circle class="cls-6" cx="182.64285714285711" cy="211.785714285714221" r="2.914285714286166"/>
        <circle class="cls-6" cx="401.214285714285779" cy="211.785714285714221" r="2.914285714286052"/>
        <circle class="cls-6" cx="372.071428571428896" cy="255.5" r="2.91428571428537"/>
        <circle class="cls-6" cx="299.214285714285552" cy="66.071428571428669" r="2.914285714285824"/>
        <circle class="cls-6" cx="255.5" cy="182.642857142856883" r="2.914285714285597"/>
        <circle class="cls-6" cx="211.785714285714448" cy="182.642857142856883" r="2.914285714285256"/>
        <circle class="cls-6" cx="444.928571428571104" cy="357.5" r="2.914285714285824"/>
        <circle class="cls-6" cx="401.214285714285779" cy="36.928571428571558" r="2.914285714285824"/>
        <circle class="cls-6" cx="401.214285714285779" cy="109.785714285714448" r="2.914285714285483"/>
        <circle class="cls-6" cx="284.64285714285711" cy="240.928571428571104" r="2.914285714286166"/>
        <circle class="cls-6" cx="401.214285714285779" cy="255.5" r="2.91428571428537"/>
        <circle class="cls-6" cx="459.5" cy="211.785714285714221" r="2.914285714285824"/>
        <circle class="cls-6" cx="372.071428571428896" cy="182.642857142856883" r="2.91428571428537"/>
        <circle class="cls-6" cx="328.35714285714289" cy="401.214285714285779" r="2.914285714285483"/>
        <circle class="cls-6" cx="430.357142857143117" cy="36.928571428571558" r="2.914285714285597"/>
        <circle class="cls-6" cx="299.214285714285552" cy="255.5" r="2.914285714285483"/>
        <circle class="cls-6" cx="328.35714285714289" cy="109.785714285714448" r="2.91428571428537"/>
        <circle class="cls-6" cx="255.5" cy="182.642857142856883" r="2.914285714285597"/>
        <circle class="cls-6" cx="328.35714285714289" cy="255.5" r="2.914285714285256"/>
        <circle class="cls-6" cx="372.071428571428896" cy="211.785714285714221" r="2.914285714286052"/>
        <circle class="cls-6" cx="328.35714285714289" cy="357.5" r="2.914285714285256"/>
        <circle class="cls-6" cx="401.214285714285779" cy="153.5" r="2.914285714285824"/>
        <circle class="cls-6" cx="255.5" cy="255.5" r="2.914285714285597"/>
        <circle class="cls-6" cx="401.214285714285779" cy="182.642857142856883" r="2.91428571428537"/>
        <circle class="cls-6" cx="226.35714285714289" cy="328.357142857143117" r="2.914285714285256"/>
        <circle class="cls-6" cx="401.214285714285779" cy="401.214285714285779" r="2.914285714285597"/>
        <circle class="cls-6" cx="299.214285714285552" cy="109.785714285714448" r="2.914285714285597"/>
        <circle class="cls-6" cx="474.071428571428896" cy="138.928571428571558" r="2.914285714285824"/>
        <circle class="cls-6" cx="357.5" cy="36.928571428571558" r="2.914285714285597"/>
        <circle class="cls-6" cx="255.5" cy="109.785714285714448" r="2.914285714285711"/>
        <circle class="cls-6" cx="474.071428571428896" cy="138.928571428571558" r="2.914285714285824"/>
        <circle class="cls-6" cx="182.64285714285711" cy="401.214285714285779" r="2.914285714285711"/>
        <circle class="cls-6" cx="401.214285714285779" cy="138.928571428571558" r="2.914285714285824"/>
        <circle class="cls-6" cx="357.5" cy="401.214285714285779" r="2.91428571428537"/>
        <circle class="cls-6" cx="401.214285714285779" cy="226.357142857143117" r="2.91428571428537"/>
        <circle class="cls-6" cx="474.071428571428896" cy="182.642857142856883" r="2.91428571428537"/>
        <circle class="cls-6" cx="357.5" cy="36.928571428571558" r="2.914285714285597"/>
        <circle class="cls-6" cx="474.071428571428896" cy="109.785714285714448" r="2.914285714285483"/>
        <circle class="cls-6" cx="357.5" cy="36.928571428571558" r="2.914285714285597"/>
        <circle class="cls-6" cx="357.5" cy="182.642857142856883" r="2.914285714285143"/>
        <circle class="cls-6" cx="474.071428571428896" cy="36.928571428571558" r="2.914285714285824"/>
        <circle class="cls-6" cx="255.5" cy="255.5" r="2.914285714285597"/>
        <circle class="cls-6" cx="401.214285714285779" cy="182.642857142856883" r="2.91428571428537"/>
        <circle class="cls-6" cx="474.071428571428896" cy="109.785714285714448" r="2.914285714285483"/>
        <circle class="cls-6" cx="284.64285714285711" cy="211.785714285714221" r="2.914285714286166"/>
        <circle class="cls-6" cx="284.64285714285711" cy="153.5" r="2.914285714285938"/>
        <circle class="cls-6" cx="430.357142857143117" cy="109.785714285714448" r="2.914285714285256"/>
        <circle class="cls-6" cx="284.64285714285711" cy="255.5" r="2.914285714285483"/>
        <circle class="cls-6" cx="357.5" cy="270.071428571428896" r="2.91428571428537"/>
        <circle class="cls-6" cx="153.5" cy="211.785714285714221" r="2.914285714286279"/>
        <circle class="cls-6" cx="299.214285714285552" cy="36.928571428571558" r="2.914285714285938"/>
        <circle class="cls-6" cx="474.071428571428896" cy="182.642857142856883" r="2.91428571428537"/>
        <circle class="cls-6" cx="401.214285714285779" cy="138.928571428571558" r="2.914285714285824"/>
        <circle class="cls-6" cx="474.071428571428896" cy="182.642857142856883" r="2.91428571428537"/>
        <circle class="cls-6" cx="328.35714285714289" cy="357.5" r="2.914285714285256"/>
        <circle class="cls-6" cx="474.071428571428896" cy="95.214285714286007" r="2.914285714285483"/>
        <circle class="cls-6" cx="401.214285714285779" cy="109.785714285714448" r="2.914285714285483"/>
        <circle class="cls-6" cx="328.35714285714289" cy="182.642857142856883" r="2.914285714285256"/>
        <circle class="cls-6" cx="328.35714285714289" cy="182.642857142856883" r="2.914285714285256"/>
        <circle class="cls-6" cx="401.214285714285779" cy="182.642857142856883" r="2.91428571428537"/>
        <circle class="cls-6" cx="284.64285714285711" cy="211.785714285714221" r="2.914285714286166"/>
        <circle class="cls-6" cx="342.928571428571331" cy="182.642857142856883" r="2.914285714285256"/>
        <circle class="cls-6" cx="474.071428571428896" cy="66.071428571428669" r="2.914285714285711"/>
        <circle class="cls-6" cx="328.35714285714289" cy="401.214285714285779" r="2.914285714285483"/>
        <circle class="cls-6" cx="36.928571428571331" cy="211.785714285714221" r="2.914285714285938"/>
        <circle class="cls-6" cx="226.35714285714289" cy="153.5" r="2.914285714285711"/>
        <circle class="cls-6" cx="80.64285714285711" cy="474.071428571428896" r="2.914285714285711"/>
        <circle class="cls-6" cx="95.214285714285552" cy="357.5" r="2.914285714285483"/>
        <circle class="cls-6" cx="430.357142857143117" cy="328.357142857143117" r="2.914285714285143"/>
        <circle class="cls-6" cx="284.64285714285711" cy="109.785714285714448" r="2.914285714285597"/>
        <circle class="cls-6" cx="386.642857142856883" cy="153.5" r="2.914285714285597"/>
        <circle class="cls-6" cx="444.928571428571104" cy="109.785714285714448" r="2.914285714285938"/>
        <circle class="cls-6" cx="372.071428571428896" cy="138.928571428571558" r="2.914285714285824"/>
        <circle class="cls-6" cx="474.071428571428896" cy="182.642857142856883" r="2.91428571428537"/>
        <circle class="cls-6" cx="270.071428571428442" cy="328.357142857143117" r="2.914285714285597"/>
        <circle class="cls-6" cx="401.214285714285779" cy="182.642857142856883" r="2.91428571428537"/>
        <circle class="cls-6" cx="401.214285714285779" cy="401.214285714285779" r="2.914285714285597"/>
        <circle class="cls-6" cx="153.5" cy="401.214285714285779" r="2.914285714285824"/>
        <circle class="cls-6" cx="299.214285714285552" cy="80.64285714285711" r="2.914285714285824"/>
        <circle class="cls-6" cx="401.214285714285779" cy="138.928571428571558" r="2.914285714285824"/>
        <circle class="cls-6" cx="430.357142857143117" cy="36.928571428571558" r="2.914285714285597"/>
        <circle class="cls-6" cx="211.785714285714448" cy="182.642857142856883" r="2.914285714285256"/>
        <circle class="cls-6" cx="299.214285714285552" cy="401.214285714285779" r="2.914285714285711"/>
        <circle class="cls-6" cx="168.071428571428442" cy="138.928571428571558" r="2.914285714286052"/>
        <circle class="cls-6" cx="328.35714285714289" cy="36.928571428571558" r="2.914285714285711"/>
        <circle class="cls-6" cx="328.35714285714289" cy="153.5" r="2.914285714285711"/>
        <circle class="cls-6" cx="401.214285714285779" cy="36.928571428571558" r="2.914285714285824"/>
        <circle class="cls-6" cx="328.35714285714289" cy="182.642857142856883" r="2.914285714285256"/>
        <circle class="cls-6" cx="328.35714285714289" cy="182.642857142856883" r="2.914285714285256"/>
        <circle class="cls-6" cx="342.928571428571331" cy="109.785714285714448" r="2.91428571428537"/>
        <circle class="cls-6" cx="372.071428571428896" cy="109.785714285714448" r="2.914285714285483"/>
        <circle class="cls-6" cx="211.785714285714448" cy="182.642857142856883" r="2.914285714285256"/>
        <circle class="cls-6" cx="372.071428571428896" cy="36.928571428571558" r="2.914285714285824"/>
        <circle class="cls-6" cx="226.35714285714289" cy="255.5" r="2.914285714285256"/>
        <circle class="cls-6" cx="401.214285714285779" cy="66.071428571428669" r="2.914285714285711"/>
        <circle class="cls-6" cx="182.64285714285711" cy="474.071428571428896" r="2.914285714285711"/>
        <circle class="cls-6" cx="255.5" cy="182.642857142856883" r="2.914285714285597"/>
        <circle class="cls-6" cx="153.5" cy="109.785714285714448" r="2.914285714285711"/>
        <circle class="cls-6" cx="357.5" cy="182.642857142856883" r="2.914285714285143"/>
        <circle class="cls-6" cx="226.35714285714289" cy="182.642857142856883" r="2.914285714285256"/>
        <circle class="cls-6" cx="255.5" cy="211.785714285714221" r="2.914285714286279"/>
        <circle class="cls-6" cx="401.214285714285779" cy="80.64285714285711" r="2.914285714285711"/>
        <circle class="cls-6" cx="299.214285714285552" cy="36.928571428571558" r="2.914285714285938"/>
        <circle class="cls-6" cx="270.071428571428442" cy="255.5" r="2.914285714285597"/>
        <circle class="cls-6" cx="255.5" cy="153.5" r="2.914285714286052"/>
        <circle class="cls-6" cx="372.071428571428896" cy="109.785714285714448" r="2.914285714285483"/>
        <circle class="cls-6" cx="182.64285714285711" cy="401.214285714285779" r="2.914285714285711"/>
        <circle class="cls-6" cx="444.928571428571104" cy="255.5" r="2.914285714285824"/>
        <circle class="cls-6" cx="255.5" cy="386.642857142856883" r="2.914285714285597"/>
        <circle class="cls-6" cx="415.785714285714221" cy="226.357142857143117" r="2.914285714285824"/>
        <circle class="cls-6" cx="386.642857142856883" cy="240.928571428571104" r="2.914285714285824"/>
        <circle class="cls-6" cx="328.35714285714289" cy="284.642857142856883" r="2.914285714285256"/>
        <circle class="cls-6" cx="415.785714285714221" cy="36.928571428571558" r="2.914285714286279"/>
        <circle class="cls-6" cx="66.071428571428669" cy="328.357142857143117" r="2.914285714285483"/>
        <circle class="cls-6" cx="401.214285714285779" cy="255.5" r="2.91428571428537"/>
        <circle class="cls-6" cx="401.214285714285779" cy="182.642857142856883" r="2.91428571428537"/>
        <circle class="cls-6" cx="153.5" cy="386.642857142856883" r="2.914285714285597"/>
        <circle class="cls-6" cx="328.35714285714289" cy="328.357142857143117" r="2.914285714285256"/>
        <circle class="cls-6" cx="153.5" cy="168.071428571428896" r="2.914285714285824"/>
        <circle class="cls-6" cx="357.5" cy="255.5" r="2.914285714285143"/>
        <circle class="cls-6" cx="197.214285714285552" cy="474.071428571428896" r="2.914285714285711"/>
        <circle class="cls-6" cx="153.5" cy="328.357142857143117" r="2.914285714285597"/>
        <circle class="cls-6" cx="299.214285714285552" cy="474.071428571428896" r="2.914285714285711"/>
        <circle class="cls-6" cx="328.35714285714289" cy="211.785714285714221" r="2.914285714285938"/>
        <circle class="cls-6" cx="240.928571428571331" cy="255.5" r="2.914285714285256"/>
        <circle class="cls-6" cx="386.642857142856883" cy="182.642857142856883" r="2.914285714285143"/>
        <circle class="cls-6" cx="415.785714285714221" cy="153.5" r="2.914285714286279"/>
        <circle class="cls-6" cx="401.214285714285779" cy="255.5" r="2.91428571428537"/>
        <circle class="cls-6" cx="372.071428571428896" cy="138.928571428571558" r="2.914285714285824"/>
        <circle class="cls-6" cx="328.35714285714289" cy="255.5" r="2.914285714285256"/>
        <circle class="cls-6" cx="226.35714285714289" cy="36.928571428571558" r="2.914285714285711"/>
        <circle class="cls-6" cx="328.35714285714289" cy="255.5" r="2.914285714285256"/>
        <circle class="cls-6" cx="182.64285714285711" cy="328.357142857143117" r="2.914285714285483"/>
        <circle class="cls-6" cx="401.214285714285779" cy="36.928571428571558" r="2.914285714285824"/>
      </g>
    </g>
  </g>
  <g id="grid">
    <rect class="cls-2" x=".5" y=".5" width="510" height="510"/>
  </g>
</svg>